<?xml version="1.0" encoding="utf-8"?>
<!-- Generator: Adobe Illustrator 21.0.2, SVG Export Plug-In . SVG Version: 6.00 Build 0)  -->
<svg version="1.1" id="Calque_1" xmlns="http://www.w3.org/2000/svg" xmlns:xlink="http://www.w3.org/1999/xlink" x="0px" y="0px"
	 viewBox="0 0 419.8 118.6" style="enable-background:new 0 0 419.8 118.6;" xml:space="preserve">
<style type="text/css">
	.st0{fill:#FFFFFF;}
	.st1{fill:#EDEDED;}
	.st2{fill:url(#SVGID_1_);}
	.st3{fill:url(#SVGID_2_);}
	.st4{fill:url(#SVGID_3_);}
</style>
<g>
	<path class="st0" d="M195.2,4v46.8c0,1.4-0.5,1.8-1.8,1.8h-2.8c-1.4,0-1.8-0.5-1.8-1.8V25.1c0-4,0.4-8.4,1.3-13.4h-0.4
		c-1.8,4.8-3.6,8.2-5.7,11.9l-9,16.1c-0.6,1-1.1,1.4-2.2,1.4h-1.8c-1.1,0-1.6-0.3-2.2-1.4l-9.2-16.2c-2.2-3.8-3.6-6.8-5.3-11.8h-0.4
		c0.9,5,1.1,9.2,1.1,13.4v25.7c0,1.4-0.4,1.8-1.8,1.8h-2.7c-1.3,0-1.8-0.5-1.8-1.8V4c0-1.3,0.5-1.8,1.8-1.8h2.5c1.6,0,2,0.3,2.6,1.4
		l16.3,29.1l16.3-29c0.6-1.2,1.1-1.5,2.6-1.5h2.7C194.7,2.1,195.2,2.6,195.2,4z"/>
	<path class="st0" d="M219.2,14.9c10.9,0,16.1,6.3,16.1,14.7v4.1c0,1.5-0.6,2.5-2.6,2.5h-23.2v3.4c0,5.4,3.3,8.5,9.5,8.5
		c5,0,8.1-1.9,9.9-4.9c0.9-1.2,1.5-1.4,2.8-0.6l1.9,1c1.3,0.6,1.4,1.6,0.6,2.8c-2.5,4.3-7.1,7.3-15.3,7.3
		c-11.1,0-15.8-6.1-15.8-14.8v-8.8C203.1,20.5,208.7,14.9,219.2,14.9z M219.2,20.3c-6.4,0-9.7,3.4-9.7,9v2.1h19.5v-2.1
		C228.9,23.7,225.7,20.3,219.2,20.3z"/>
	<path class="st0" d="M249.2,5.9v0.6c0,2.6-0.8,3.4-3.4,3.4h-0.4c-2.6,0-3.4-0.8-3.4-3.4V5.9c0-2.6,0.9-3.4,3.4-3.4h0.4
		C248.4,2.5,249.2,3.3,249.2,5.9z M248.8,17.6v33.3c0,1.3-0.4,1.7-1.7,1.7h-3c-1.3,0-1.7-0.4-1.7-1.7V17.6c0-1.3,0.4-1.7,1.7-1.7h3
		C248.3,15.9,248.8,16.3,248.8,17.6z"/>
	<path class="st0" d="M262.5,52.6h-2.9c-1.3,0-1.7-0.4-1.7-1.7V1.7c0-1.3,0.4-1.7,1.7-1.7h2.9c1.3,0,1.7,0.4,1.7,1.7v49.2
		C264.2,52.2,263.8,52.6,262.5,52.6z"/>
	<path class="st0" d="M278.2,52.6h-2.9c-1.3,0-1.7-0.4-1.7-1.7V1.7c0-1.3,0.4-1.7,1.7-1.7h2.9c1.3,0,1.7,0.4,1.7,1.7v49.2
		C279.9,52.2,279.5,52.6,278.2,52.6z"/>
	<path class="st0" d="M303.8,14.9c10.9,0,16.1,6.3,16.1,14.7v4.1c0,1.5-0.6,2.5-2.6,2.5H294v3.4c0,5.4,3.3,8.5,9.5,8.5
		c5,0,8.1-1.9,9.9-4.9c0.9-1.2,1.5-1.4,2.8-0.6l1.9,1c1.3,0.6,1.4,1.6,0.6,2.8c-2.5,4.3-7.1,7.3-15.3,7.3
		c-11.1,0-15.8-6.1-15.8-14.8v-8.8C287.7,20.5,293.3,14.9,303.8,14.9z M303.8,20.3c-6.4,0-9.7,3.4-9.7,9v2.1h19.5v-2.1
		C313.5,23.7,310.2,20.3,303.8,20.3z"/>
	<path class="st0" d="M357.4,17.6v29.6c0,2.2-0.5,3.1-2.7,4c-2.8,1.1-7,2.4-13.6,2.4c-9.9,0-14.4-5.3-14.4-14.1v-22
		c0-1.3,0.4-1.7,1.7-1.7h3c1.2,0,1.6,0.4,1.6,1.7v21.7c0,5.6,2.8,8.5,9,8.5c3.5,0,6-0.6,8-1.2c0.9-0.4,1.1-0.9,1.1-1.6V17.6
		c0-1.3,0.4-1.7,1.7-1.7h2.9C356.9,15.9,357.4,16.3,357.4,17.6z"/>
	<path class="st0" d="M384,14.9c1.3,0,1.7,0.4,1.7,1.7V19c0,1.3-0.4,1.7-1.7,1.7h-2.5c-3.5,0-6.1,0.6-8.2,1.2c-0.9,0.4-1,0.8-1,1.4
		v27.6c0,1.3-0.4,1.7-1.7,1.7h-3c-1.2,0-1.6-0.4-1.6-1.7V21c0-2.2,0.5-3.1,2.7-4c2.6-1,6.8-2.1,13-2.2H384z"/>
	<path class="st0" d="M403,14.9c8.2,0,12.7,3.1,14.9,7.7c0.6,1.3,0.3,2-0.9,2.5l-2.4,1c-1.3,0.6-1.6,0.4-2.3-0.8
		c-1.4-2.8-3.6-4.6-9.1-4.6s-8.1,1.7-8.1,5.1c0,4.5,3.8,5.1,9.7,5.6c8.1,0.8,14.1,2.6,14.1,10.9c0,6.8-4.9,11.4-14.9,11.4
		c-8.1,0-13.4-2.9-15.6-8.7c-0.5-1.1-0.2-1.8,1.1-2.3l2.4-0.9c1.1-0.4,1.7-0.2,2.3,1.1c1.4,3.7,4.6,5.1,9.6,5.1c6,0,8.9-1.9,8.9-5.4
		c0-4.3-3.5-5-9.5-5.6c-7.1-0.7-14.4-1.9-14.4-11.1C388.7,19.3,393.5,14.9,403,14.9z"/>
	<path class="st1" d="M184.4,76.6c0,5.5-2,9.1-6.1,11.1v0.2c5,1.5,8,5.8,8,12.4c0,8.9-6.3,13.7-15.3,13.7h-20.5
		c-1.3,0-1.8-0.5-1.8-1.8V65.3c0-1.3,0.5-1.8,1.8-1.8h19.9C179.1,63.5,184.4,68.1,184.4,76.6z M169.5,69.9h-14.1v15.3h14.1
		c5.1,0,7.9-2.5,7.9-7.6S174.6,69.9,169.5,69.9z M170.7,91.4h-15.3v16.1h15.3c5.3,0,8.2-2.7,8.2-8C178.9,94.2,176,91.4,170.7,91.4z"
		/>
	<path class="st1" d="M199,67.1v0.6c0,2.6-0.8,3.4-3.4,3.4h-0.4c-2.6,0-3.4-0.8-3.4-3.4v-0.6c0-2.6,0.9-3.4,3.4-3.4h0.4
		C198.2,63.7,199,64.5,199,67.1z M198.6,78.8V112c0,1.3-0.4,1.7-1.7,1.7h-3c-1.3,0-1.7-0.4-1.7-1.7V78.8c0-1.3,0.4-1.7,1.7-1.7h3
		C198.2,77.1,198.6,77.5,198.6,78.8z"/>
	<path class="st1" d="M220.8,76c10.9,0,16.1,6.3,16.1,14.7v4.1c0,1.5-0.6,2.5-2.6,2.5H211v3.4c0,5.4,3.3,8.5,9.5,8.5
		c5,0,8.1-1.9,9.9-4.9c0.9-1.2,1.5-1.4,2.8-0.6l1.9,1c1.3,0.6,1.4,1.6,0.6,2.8c-2.5,4.3-7.1,7.3-15.3,7.3
		c-11.1,0-15.8-6.1-15.8-14.8v-8.8C204.7,81.6,210.3,76,220.8,76z M220.8,81.4c-6.4,0-9.7,3.4-9.7,9v2.1h19.5v-2.1
		C230.5,84.8,227.2,81.4,220.8,81.4z"/>
	<path class="st1" d="M258.7,76c9.9,0,14.4,5.3,14.4,14.1v22c0,1.3-0.4,1.7-1.7,1.7h-3c-1.3,0-1.7-0.4-1.7-1.7V90.3
		c0-5.6-2.8-8.5-8.9-8.5c-3.5,0-6.3,0.6-8.2,1.3c-0.7,0.3-0.9,0.7-0.9,1.3V112c0,1.3-0.4,1.7-1.7,1.7h-3c-1.2,0-1.6-0.4-1.6-1.7
		V82.4c0-2.2,0.5-3.1,2.7-4C247.9,77.3,252.1,76,258.7,76z"/>
	<path class="st1" d="M293.1,76c8.2,0,12.7,3.1,14.9,7.7c0.6,1.3,0.3,2-0.9,2.5l-2.4,1c-1.3,0.6-1.6,0.4-2.3-0.8
		c-1.3-2.8-3.6-4.6-9.1-4.6s-8.1,1.7-8.1,5.1c0,4.5,3.8,5.1,9.7,5.6c8.1,0.8,14.1,2.6,14.1,10.9c0,6.8-4.9,11.4-14.9,11.4
		c-8.1,0-13.4-2.9-15.6-8.7c-0.5-1.1-0.2-1.8,1.1-2.3l2.4-0.9c1.1-0.4,1.7-0.2,2.3,1.1c1.4,3.7,4.6,5.1,9.6,5.1c6,0,8.9-1.9,8.9-5.4
		c0-4.3-3.5-5-9.5-5.6c-7.1-0.7-14.4-1.9-14.4-11.1C278.8,80.4,283.7,76,293.1,76z"/>
	<path class="st0" d="M321,110.1v0.6c0,2.7-0.9,3.6-3.6,3.6H317c-2.8,0-3.6-0.8-3.6-3.6v-0.6c0-2.7,0.9-3.6,3.6-3.6h0.4
		C320.2,106.4,321,107.4,321,110.1z"/>
	<path class="st0" d="M364.7,78.8c0,9.6-6,15.3-15.7,15.3h-16.8v18.7c0,0.7-0.2,0.9-0.9,0.9h-1.5c-0.7,0-0.9-0.2-0.9-0.9V64.2
		c0-0.7,0.2-0.9,0.9-0.9H349C358.6,63.3,364.7,69.1,364.7,78.8z M361.3,78.8c0-7.8-4.8-12.4-12.6-12.4h-16.5v24.7h16.5
		C356.4,91.1,361.3,86.5,361.3,78.8z"/>
	<path class="st0" d="M387.4,76.3c0.6,0,0.8,0.2,0.8,0.9v1.1c0,0.6-0.2,0.9-0.8,0.9h-2.3c-4.7,0-8.4,0.9-10.7,1.8
		c-1.3,0.6-1.5,1.3-1.5,2.3v29.6c0,0.6-0.2,0.9-0.8,0.9h-1.4c-0.6,0-0.9-0.2-0.9-0.9V82.5c0-2.2,0.6-3,2.7-3.9
		c2.6-1.1,6.5-2.2,12.6-2.3H387.4z"/>
	<path class="st0" d="M404.5,76.3c9.4,0,15.3,4.8,15.3,12.5v13.5c0,7.7-5.9,12.4-15.3,12.4c-9.2,0-15.2-4.7-15.2-12.4V88.8
		C389.3,81.1,395.2,76.3,404.5,76.3z M404.5,79.1c-7.2,0-12.2,3.7-12.2,9.7v13.6c0,6,4.9,9.7,12.2,9.7c7.4,0,12.2-3.7,12.2-9.7V88.7
		C416.7,82.8,411.9,79.1,404.5,79.1z"/>
</g>
<g>
	<linearGradient id="SVGID_1_" gradientUnits="userSpaceOnUse" x1="140.321" y1="85.3102" x2="99.1158" y2="44.105">
		<stop  offset="0.4844" style="stop-color:#F6F6F6"/>
		<stop  offset="1" style="stop-color:#B2B2B2"/>
	</linearGradient>
	<polygon class="st2" points="117.4,34.1 83.4,59.8 130.3,95.3 130.3,43.8 	"/>
	<linearGradient id="SVGID_2_" gradientUnits="userSpaceOnUse" x1="30.6581" y1="8.6052" x2="30.6581" y2="52.585">
		<stop  offset="0.2892" style="stop-color:#F6F6F6"/>
		<stop  offset="0.3569" style="stop-color:#F2F2F2"/>
		<stop  offset="0.7064" style="stop-color:#B2B2B2"/>
	</linearGradient>
	<polygon class="st3" points="48.3,26.5 48.3,8.6 13,8.6 13.1,52.6 	"/>
	<linearGradient id="SVGID_3_" gradientUnits="userSpaceOnUse" x1="57.5217" y1="5.2653" x2="57.5217" y2="118.6318">
		<stop  offset="0.2892" style="stop-color:#F6F6F6"/>
		<stop  offset="0.3569" style="stop-color:#F2F2F2"/>
		<stop  offset="0.7064" style="stop-color:#B2B2B2"/>
	</linearGradient>
	<polygon class="st4" points="113.8,30.4 81.9,5.3 81.2,5.8 80.5,6.3 40.5,36.5 0,67.1 0,77 0,118.6 81,57.2 115,31.4 	"/>
</g>
</svg>
